<mxfile host="app.diagrams.net" agent="Mozilla/5.0 (Windows NT 10.0; Win64; x64) AppleWebKit/537.36 (KHTML, like Gecko) Chrome/135.0.0.0 Safari/537.36" version="26.2.10">
  <diagram id="C5RBs43oDa-KdzZeNtuy" name="Page-1">
    <mxGraphModel dx="1044" dy="562" grid="1" gridSize="10" guides="1" tooltips="1" connect="1" arrows="1" fold="1" page="1" pageScale="1" pageWidth="827" pageHeight="1169" math="0" shadow="0">
      <root>
        <mxCell id="WIyWlLk6GJQsqaUBKTNV-0" />
        <mxCell id="WIyWlLk6GJQsqaUBKTNV-1" parent="WIyWlLk6GJQsqaUBKTNV-0" />
        <mxCell id="VYu32PH_5dpZnwGlzTMF-17" value="" style="edgeStyle=orthogonalEdgeStyle;rounded=0;orthogonalLoop=1;jettySize=auto;html=1;" edge="1" parent="WIyWlLk6GJQsqaUBKTNV-1" source="VYu32PH_5dpZnwGlzTMF-1" target="VYu32PH_5dpZnwGlzTMF-16">
          <mxGeometry relative="1" as="geometry" />
        </mxCell>
        <mxCell id="VYu32PH_5dpZnwGlzTMF-1" value="INICIO" style="strokeWidth=2;html=1;shape=mxgraph.flowchart.start_1;whiteSpace=wrap;fillColor=#d5e8d4;strokeColor=#82b366;" vertex="1" parent="WIyWlLk6GJQsqaUBKTNV-1">
          <mxGeometry x="360" y="140" width="100" height="60" as="geometry" />
        </mxCell>
        <mxCell id="VYu32PH_5dpZnwGlzTMF-2" value="FIM" style="strokeWidth=2;html=1;shape=mxgraph.flowchart.start_1;whiteSpace=wrap;fillColor=#d5e8d4;strokeColor=#82b366;" vertex="1" parent="WIyWlLk6GJQsqaUBKTNV-1">
          <mxGeometry x="359.75" y="820" width="100" height="60" as="geometry" />
        </mxCell>
        <mxCell id="VYu32PH_5dpZnwGlzTMF-3" value="" style="edgeStyle=orthogonalEdgeStyle;rounded=0;orthogonalLoop=1;jettySize=auto;html=1;" edge="1" parent="WIyWlLk6GJQsqaUBKTNV-1" source="VYu32PH_5dpZnwGlzTMF-4">
          <mxGeometry relative="1" as="geometry">
            <mxPoint x="410" y="440" as="targetPoint" />
          </mxGeometry>
        </mxCell>
        <mxCell id="VYu32PH_5dpZnwGlzTMF-4" value="NUMERO" style="html=1;strokeWidth=2;shape=manualInput;whiteSpace=wrap;rounded=1;size=26;arcSize=11;fillColor=#dae8fc;strokeColor=#6c8ebf;" vertex="1" parent="WIyWlLk6GJQsqaUBKTNV-1">
          <mxGeometry x="360" y="350" width="100" height="60" as="geometry" />
        </mxCell>
        <mxCell id="VYu32PH_5dpZnwGlzTMF-7" style="edgeStyle=orthogonalEdgeStyle;rounded=0;orthogonalLoop=1;jettySize=auto;html=1;exitX=0;exitY=0.5;exitDx=0;exitDy=0;" edge="1" parent="WIyWlLk6GJQsqaUBKTNV-1" source="VYu32PH_5dpZnwGlzTMF-9">
          <mxGeometry relative="1" as="geometry">
            <mxPoint x="299.75" y="540" as="targetPoint" />
          </mxGeometry>
        </mxCell>
        <mxCell id="VYu32PH_5dpZnwGlzTMF-8" value="S" style="edgeLabel;html=1;align=center;verticalAlign=middle;resizable=0;points=[];" vertex="1" connectable="0" parent="VYu32PH_5dpZnwGlzTMF-7">
          <mxGeometry x="-0.3723" y="-4" relative="1" as="geometry">
            <mxPoint as="offset" />
          </mxGeometry>
        </mxCell>
        <mxCell id="VYu32PH_5dpZnwGlzTMF-9" value="NUMERO&amp;nbsp;&lt;div&gt;&amp;gt;= 0&lt;/div&gt;" style="rhombus;whiteSpace=wrap;html=1;fillColor=#ffe6cc;strokeColor=#d79b00;strokeWidth=2;rounded=1;arcSize=11;" vertex="1" parent="WIyWlLk6GJQsqaUBKTNV-1">
          <mxGeometry x="369.75" y="440" width="80" height="80" as="geometry" />
        </mxCell>
        <mxCell id="VYu32PH_5dpZnwGlzTMF-10" style="edgeStyle=orthogonalEdgeStyle;rounded=0;orthogonalLoop=1;jettySize=auto;html=1;exitX=1;exitY=0.5;exitDx=0;exitDy=0;entryX=0.5;entryY=0;entryDx=0;entryDy=0;entryPerimeter=0;" edge="1" parent="WIyWlLk6GJQsqaUBKTNV-1" source="VYu32PH_5dpZnwGlzTMF-9">
          <mxGeometry relative="1" as="geometry">
            <mxPoint x="519.75" y="540" as="targetPoint" />
          </mxGeometry>
        </mxCell>
        <mxCell id="VYu32PH_5dpZnwGlzTMF-11" value="N" style="edgeLabel;html=1;align=center;verticalAlign=middle;resizable=0;points=[];" vertex="1" connectable="0" parent="VYu32PH_5dpZnwGlzTMF-10">
          <mxGeometry x="-0.4738" y="3" relative="1" as="geometry">
            <mxPoint as="offset" />
          </mxGeometry>
        </mxCell>
        <mxCell id="VYu32PH_5dpZnwGlzTMF-13" value="" style="verticalLabelPosition=bottom;verticalAlign=top;html=1;shape=mxgraph.flowchart.on-page_reference;fillColor=#f5f5f5;gradientColor=#b3b3b3;strokeColor=#666666;" vertex="1" parent="WIyWlLk6GJQsqaUBKTNV-1">
          <mxGeometry x="394.75" y="670" width="30" height="30" as="geometry" />
        </mxCell>
        <mxCell id="VYu32PH_5dpZnwGlzTMF-18" value="" style="edgeStyle=orthogonalEdgeStyle;rounded=0;orthogonalLoop=1;jettySize=auto;html=1;" edge="1" parent="WIyWlLk6GJQsqaUBKTNV-1" source="VYu32PH_5dpZnwGlzTMF-16" target="VYu32PH_5dpZnwGlzTMF-4">
          <mxGeometry relative="1" as="geometry" />
        </mxCell>
        <mxCell id="VYu32PH_5dpZnwGlzTMF-16" value="A = 0&lt;div&gt;B = 0&lt;/div&gt;" style="whiteSpace=wrap;html=1;fillColor=#f5f5f5;strokeColor=#666666;strokeWidth=2;fontColor=#333333;" vertex="1" parent="WIyWlLk6GJQsqaUBKTNV-1">
          <mxGeometry x="350" y="250" width="120" height="40" as="geometry" />
        </mxCell>
        <mxCell id="VYu32PH_5dpZnwGlzTMF-19" value="A = NUMERO" style="whiteSpace=wrap;html=1;fillColor=#f5f5f5;strokeColor=#666666;strokeWidth=2;fontColor=#333333;" vertex="1" parent="WIyWlLk6GJQsqaUBKTNV-1">
          <mxGeometry x="240" y="545" width="120" height="40" as="geometry" />
        </mxCell>
        <mxCell id="VYu32PH_5dpZnwGlzTMF-20" value="B = NUMERO" style="whiteSpace=wrap;html=1;fillColor=#f5f5f5;strokeColor=#666666;strokeWidth=2;fontColor=#333333;" vertex="1" parent="WIyWlLk6GJQsqaUBKTNV-1">
          <mxGeometry x="460" y="545" width="120" height="40" as="geometry" />
        </mxCell>
        <mxCell id="VYu32PH_5dpZnwGlzTMF-21" style="edgeStyle=orthogonalEdgeStyle;rounded=0;orthogonalLoop=1;jettySize=auto;html=1;exitX=0.5;exitY=1;exitDx=0;exitDy=0;entryX=1;entryY=0.5;entryDx=0;entryDy=0;entryPerimeter=0;" edge="1" parent="WIyWlLk6GJQsqaUBKTNV-1" source="VYu32PH_5dpZnwGlzTMF-20" target="VYu32PH_5dpZnwGlzTMF-13">
          <mxGeometry relative="1" as="geometry" />
        </mxCell>
        <mxCell id="VYu32PH_5dpZnwGlzTMF-22" style="edgeStyle=orthogonalEdgeStyle;rounded=0;orthogonalLoop=1;jettySize=auto;html=1;exitX=0.5;exitY=1;exitDx=0;exitDy=0;entryX=0;entryY=0.5;entryDx=0;entryDy=0;entryPerimeter=0;" edge="1" parent="WIyWlLk6GJQsqaUBKTNV-1" source="VYu32PH_5dpZnwGlzTMF-19" target="VYu32PH_5dpZnwGlzTMF-13">
          <mxGeometry relative="1" as="geometry" />
        </mxCell>
        <mxCell id="VYu32PH_5dpZnwGlzTMF-23" value="A , B" style="strokeWidth=2;html=1;shape=mxgraph.flowchart.display;whiteSpace=wrap;fillColor=#e1d5e7;strokeColor=#9673a6;" vertex="1" parent="WIyWlLk6GJQsqaUBKTNV-1">
          <mxGeometry x="359.75" y="720" width="100" height="60" as="geometry" />
        </mxCell>
        <mxCell id="VYu32PH_5dpZnwGlzTMF-24" style="edgeStyle=orthogonalEdgeStyle;rounded=0;orthogonalLoop=1;jettySize=auto;html=1;exitX=0.5;exitY=1;exitDx=0;exitDy=0;exitPerimeter=0;entryX=0.5;entryY=0;entryDx=0;entryDy=0;entryPerimeter=0;" edge="1" parent="WIyWlLk6GJQsqaUBKTNV-1" source="VYu32PH_5dpZnwGlzTMF-13" target="VYu32PH_5dpZnwGlzTMF-23">
          <mxGeometry relative="1" as="geometry" />
        </mxCell>
        <mxCell id="VYu32PH_5dpZnwGlzTMF-25" style="edgeStyle=orthogonalEdgeStyle;rounded=0;orthogonalLoop=1;jettySize=auto;html=1;exitX=0.5;exitY=1;exitDx=0;exitDy=0;exitPerimeter=0;entryX=0.5;entryY=0;entryDx=0;entryDy=0;entryPerimeter=0;" edge="1" parent="WIyWlLk6GJQsqaUBKTNV-1" source="VYu32PH_5dpZnwGlzTMF-23" target="VYu32PH_5dpZnwGlzTMF-2">
          <mxGeometry relative="1" as="geometry" />
        </mxCell>
      </root>
    </mxGraphModel>
  </diagram>
</mxfile>
